<mxfile host="app.diagrams.net" modified="2024-05-15T06:53:31.362Z" agent="Mozilla/5.0 (Windows NT 10.0; Win64; x64) AppleWebKit/537.36 (KHTML, like Gecko) Chrome/124.0.0.0 Safari/537.36" etag="o8XFTZ0whtSWeuvrA_ut" version="24.4.0" type="device">
  <diagram id="C5RBs43oDa-KdzZeNtuy" name="Page-1">
    <mxGraphModel dx="1050" dy="565" grid="1" gridSize="10" guides="1" tooltips="1" connect="1" arrows="1" fold="1" page="1" pageScale="1" pageWidth="827" pageHeight="1169" math="0" shadow="0">
      <root>
        <mxCell id="WIyWlLk6GJQsqaUBKTNV-0" />
        <mxCell id="WIyWlLk6GJQsqaUBKTNV-1" parent="WIyWlLk6GJQsqaUBKTNV-0" />
        <mxCell id="PXDPwsl1-ho9lNS0w0AV-3" value="" style="edgeStyle=orthogonalEdgeStyle;rounded=0;orthogonalLoop=1;jettySize=auto;html=1;" parent="WIyWlLk6GJQsqaUBKTNV-1" source="WIyWlLk6GJQsqaUBKTNV-3" target="PXDPwsl1-ho9lNS0w0AV-2" edge="1">
          <mxGeometry relative="1" as="geometry" />
        </mxCell>
        <mxCell id="WIyWlLk6GJQsqaUBKTNV-3" value="Start" style="rounded=1;whiteSpace=wrap;html=1;fontSize=12;glass=0;strokeWidth=1;shadow=0;" parent="WIyWlLk6GJQsqaUBKTNV-1" vertex="1">
          <mxGeometry x="160" y="40" width="120" height="40" as="geometry" />
        </mxCell>
        <mxCell id="WIyWlLk6GJQsqaUBKTNV-11" value="End" style="rounded=1;whiteSpace=wrap;html=1;fontSize=12;glass=0;strokeWidth=1;shadow=0;" parent="WIyWlLk6GJQsqaUBKTNV-1" vertex="1">
          <mxGeometry x="160" y="710" width="120" height="40" as="geometry" />
        </mxCell>
        <mxCell id="dF38ICEvEBP1NqxTx2Wh-2" value="" style="edgeStyle=orthogonalEdgeStyle;rounded=0;orthogonalLoop=1;jettySize=auto;html=1;" parent="WIyWlLk6GJQsqaUBKTNV-1" source="PXDPwsl1-ho9lNS0w0AV-2" target="dF38ICEvEBP1NqxTx2Wh-0" edge="1">
          <mxGeometry relative="1" as="geometry" />
        </mxCell>
        <mxCell id="PXDPwsl1-ho9lNS0w0AV-2" value="&lt;div&gt;int number;&lt;/div&gt;int i = 2;&lt;div&gt;bool flag = false;&lt;/div&gt;" style="shape=parallelogram;perimeter=parallelogramPerimeter;whiteSpace=wrap;html=1;fixedSize=1;rounded=1;glass=0;strokeWidth=1;shadow=0;" parent="WIyWlLk6GJQsqaUBKTNV-1" vertex="1">
          <mxGeometry x="155" y="120" width="130" height="80" as="geometry" />
        </mxCell>
        <mxCell id="dF38ICEvEBP1NqxTx2Wh-4" style="edgeStyle=orthogonalEdgeStyle;rounded=0;orthogonalLoop=1;jettySize=auto;html=1;" parent="WIyWlLk6GJQsqaUBKTNV-1" source="dF38ICEvEBP1NqxTx2Wh-0" target="dF38ICEvEBP1NqxTx2Wh-5" edge="1">
          <mxGeometry relative="1" as="geometry">
            <mxPoint x="320" y="350" as="targetPoint" />
          </mxGeometry>
        </mxCell>
        <mxCell id="dF38ICEvEBP1NqxTx2Wh-14" value="True" style="edgeLabel;html=1;align=center;verticalAlign=middle;resizable=0;points=[];" parent="dF38ICEvEBP1NqxTx2Wh-4" vertex="1" connectable="0">
          <mxGeometry x="-0.3569" y="4" relative="1" as="geometry">
            <mxPoint as="offset" />
          </mxGeometry>
        </mxCell>
        <mxCell id="dF38ICEvEBP1NqxTx2Wh-15" style="edgeStyle=orthogonalEdgeStyle;rounded=0;orthogonalLoop=1;jettySize=auto;html=1;" parent="WIyWlLk6GJQsqaUBKTNV-1" source="dF38ICEvEBP1NqxTx2Wh-0" edge="1">
          <mxGeometry relative="1" as="geometry">
            <mxPoint x="220" y="440" as="targetPoint" />
          </mxGeometry>
        </mxCell>
        <mxCell id="dF38ICEvEBP1NqxTx2Wh-16" value="False" style="edgeLabel;html=1;align=center;verticalAlign=middle;resizable=0;points=[];" parent="dF38ICEvEBP1NqxTx2Wh-15" vertex="1" connectable="0">
          <mxGeometry x="-0.5126" relative="1" as="geometry">
            <mxPoint y="1" as="offset" />
          </mxGeometry>
        </mxCell>
        <mxCell id="dF38ICEvEBP1NqxTx2Wh-0" value="i &amp;lt;= number/2" style="rhombus;whiteSpace=wrap;html=1;" parent="WIyWlLk6GJQsqaUBKTNV-1" vertex="1">
          <mxGeometry x="165" y="300" width="110" height="100" as="geometry" />
        </mxCell>
        <mxCell id="dF38ICEvEBP1NqxTx2Wh-7" value="" style="edgeStyle=orthogonalEdgeStyle;rounded=0;orthogonalLoop=1;jettySize=auto;html=1;" parent="WIyWlLk6GJQsqaUBKTNV-1" source="dF38ICEvEBP1NqxTx2Wh-5" edge="1">
          <mxGeometry relative="1" as="geometry">
            <mxPoint x="520" y="350" as="targetPoint" />
          </mxGeometry>
        </mxCell>
        <mxCell id="dF38ICEvEBP1NqxTx2Wh-13" value="True" style="edgeLabel;html=1;align=center;verticalAlign=middle;resizable=0;points=[];" parent="dF38ICEvEBP1NqxTx2Wh-7" vertex="1" connectable="0">
          <mxGeometry x="-0.2632" y="-2" relative="1" as="geometry">
            <mxPoint as="offset" />
          </mxGeometry>
        </mxCell>
        <mxCell id="_qm0nuO1yD4Vdi474IIa-1" value="" style="edgeStyle=orthogonalEdgeStyle;rounded=0;orthogonalLoop=1;jettySize=auto;html=1;" edge="1" parent="WIyWlLk6GJQsqaUBKTNV-1" source="dF38ICEvEBP1NqxTx2Wh-5" target="_qm0nuO1yD4Vdi474IIa-0">
          <mxGeometry relative="1" as="geometry" />
        </mxCell>
        <mxCell id="_qm0nuO1yD4Vdi474IIa-3" value="False" style="edgeLabel;html=1;align=center;verticalAlign=middle;resizable=0;points=[];" vertex="1" connectable="0" parent="_qm0nuO1yD4Vdi474IIa-1">
          <mxGeometry x="0.2" relative="1" as="geometry">
            <mxPoint as="offset" />
          </mxGeometry>
        </mxCell>
        <mxCell id="dF38ICEvEBP1NqxTx2Wh-5" value="number%i == 0;" style="rhombus;whiteSpace=wrap;html=1;" parent="WIyWlLk6GJQsqaUBKTNV-1" vertex="1">
          <mxGeometry x="320" y="300" width="120" height="100" as="geometry" />
        </mxCell>
        <mxCell id="dF38ICEvEBP1NqxTx2Wh-10" style="edgeStyle=orthogonalEdgeStyle;rounded=0;orthogonalLoop=1;jettySize=auto;html=1;" parent="WIyWlLk6GJQsqaUBKTNV-1" edge="1">
          <mxGeometry relative="1" as="geometry">
            <Array as="points">
              <mxPoint x="595" y="730" />
              <mxPoint x="295" y="730" />
            </Array>
            <mxPoint x="595" y="380" as="sourcePoint" />
            <mxPoint x="280" y="730" as="targetPoint" />
          </mxGeometry>
        </mxCell>
        <mxCell id="dF38ICEvEBP1NqxTx2Wh-8" value="&lt;div&gt;flag = true;&lt;/div&gt;&lt;div&gt;&amp;nbsp; &amp;nbsp;break;&lt;/div&gt;" style="whiteSpace=wrap;html=1;" parent="WIyWlLk6GJQsqaUBKTNV-1" vertex="1">
          <mxGeometry x="520" y="320" width="120" height="60" as="geometry" />
        </mxCell>
        <mxCell id="dF38ICEvEBP1NqxTx2Wh-18" value="" style="edgeStyle=orthogonalEdgeStyle;rounded=0;orthogonalLoop=1;jettySize=auto;html=1;" parent="WIyWlLk6GJQsqaUBKTNV-1" source="dF38ICEvEBP1NqxTx2Wh-17" target="WIyWlLk6GJQsqaUBKTNV-11" edge="1">
          <mxGeometry relative="1" as="geometry">
            <Array as="points">
              <mxPoint x="220" y="690" />
              <mxPoint x="220" y="690" />
            </Array>
          </mxGeometry>
        </mxCell>
        <mxCell id="dF38ICEvEBP1NqxTx2Wh-17" value="Eded sadedir" style="shape=document;whiteSpace=wrap;html=1;boundedLbl=1;" parent="WIyWlLk6GJQsqaUBKTNV-1" vertex="1">
          <mxGeometry x="160" y="550" width="120" height="80" as="geometry" />
        </mxCell>
        <mxCell id="dF38ICEvEBP1NqxTx2Wh-20" value="" style="edgeStyle=orthogonalEdgeStyle;rounded=0;orthogonalLoop=1;jettySize=auto;html=1;" parent="WIyWlLk6GJQsqaUBKTNV-1" source="dF38ICEvEBP1NqxTx2Wh-19" target="dF38ICEvEBP1NqxTx2Wh-17" edge="1">
          <mxGeometry relative="1" as="geometry" />
        </mxCell>
        <mxCell id="dF38ICEvEBP1NqxTx2Wh-21" value="True" style="edgeLabel;html=1;align=center;verticalAlign=middle;resizable=0;points=[];" parent="dF38ICEvEBP1NqxTx2Wh-20" vertex="1" connectable="0">
          <mxGeometry x="-0.0559" y="1" relative="1" as="geometry">
            <mxPoint as="offset" />
          </mxGeometry>
        </mxCell>
        <mxCell id="Rtr9h_RK6nCEjRiiOoA7-1" value="" style="edgeStyle=orthogonalEdgeStyle;rounded=0;orthogonalLoop=1;jettySize=auto;html=1;" parent="WIyWlLk6GJQsqaUBKTNV-1" source="dF38ICEvEBP1NqxTx2Wh-19" target="Rtr9h_RK6nCEjRiiOoA7-0" edge="1">
          <mxGeometry relative="1" as="geometry" />
        </mxCell>
        <mxCell id="Rtr9h_RK6nCEjRiiOoA7-2" value="False" style="edgeLabel;html=1;align=center;verticalAlign=middle;resizable=0;points=[];" parent="Rtr9h_RK6nCEjRiiOoA7-1" vertex="1" connectable="0">
          <mxGeometry x="-0.34" y="2" relative="1" as="geometry">
            <mxPoint as="offset" />
          </mxGeometry>
        </mxCell>
        <mxCell id="dF38ICEvEBP1NqxTx2Wh-19" value="flag == false" style="rhombus;whiteSpace=wrap;html=1;" parent="WIyWlLk6GJQsqaUBKTNV-1" vertex="1">
          <mxGeometry x="180" y="440" width="80" height="80" as="geometry" />
        </mxCell>
        <mxCell id="Rtr9h_RK6nCEjRiiOoA7-3" style="edgeStyle=orthogonalEdgeStyle;rounded=0;orthogonalLoop=1;jettySize=auto;html=1;entryX=0;entryY=0.5;entryDx=0;entryDy=0;" parent="WIyWlLk6GJQsqaUBKTNV-1" source="Rtr9h_RK6nCEjRiiOoA7-0" target="WIyWlLk6GJQsqaUBKTNV-11" edge="1">
          <mxGeometry relative="1" as="geometry">
            <Array as="points">
              <mxPoint x="60" y="730" />
            </Array>
          </mxGeometry>
        </mxCell>
        <mxCell id="Rtr9h_RK6nCEjRiiOoA7-0" value="Eded Murekkebdir" style="shape=document;whiteSpace=wrap;html=1;boundedLbl=1;" parent="WIyWlLk6GJQsqaUBKTNV-1" vertex="1">
          <mxGeometry y="440" width="120" height="80" as="geometry" />
        </mxCell>
        <mxCell id="_qm0nuO1yD4Vdi474IIa-4" style="edgeStyle=orthogonalEdgeStyle;rounded=0;orthogonalLoop=1;jettySize=auto;html=1;entryX=0.5;entryY=0;entryDx=0;entryDy=0;" edge="1" parent="WIyWlLk6GJQsqaUBKTNV-1" source="_qm0nuO1yD4Vdi474IIa-0" target="dF38ICEvEBP1NqxTx2Wh-0">
          <mxGeometry relative="1" as="geometry" />
        </mxCell>
        <mxCell id="_qm0nuO1yD4Vdi474IIa-0" value="i++;" style="rounded=0;whiteSpace=wrap;html=1;" vertex="1" parent="WIyWlLk6GJQsqaUBKTNV-1">
          <mxGeometry x="320" y="200" width="120" height="60" as="geometry" />
        </mxCell>
      </root>
    </mxGraphModel>
  </diagram>
</mxfile>
